<?xml version="1.0" encoding="utf-8"?>
<!-- Generator: Adobe Illustrator 27.0.0, SVG Export Plug-In . SVG Version: 6.00 Build 0)  -->
<svg version="1.1" id="Layer_1" xmlns="http://www.w3.org/2000/svg" xmlns:xlink="http://www.w3.org/1999/xlink" x="0px" y="0px"
	 viewBox="0 0 32 32" style="enable-background:new 0 0 32 32;" xml:space="preserve">
<style type="text/css">
	.st0{fill:#FFFFFF;}
</style>
<g>
	<path class="st0" d="M23.4,22.4c0.3,0.3,0.3,0.7,0,1s-0.7,0.3-1,0L16,17l-6.4,6.4c-0.3,0.3-0.7,0.3-1,0c-0.3-0.3-0.3-0.7,0-1L15,16
		L8.6,9.6c-0.3-0.3-0.3-0.7,0-1s0.7-0.3,1,0L16,15l6.4-6.4c0.3-0.3,0.7-0.3,1,0c0.3,0.3,0.3,0.7,0,1L17,16L23.4,22.4z"/>
</g>
</svg>
