<?xml version="1.0" encoding="utf-8"?>
<!-- Generator: Adobe Illustrator 27.0.0, SVG Export Plug-In . SVG Version: 6.00 Build 0)  -->
<svg version="1.1" id="Layer_1" xmlns="http://www.w3.org/2000/svg" xmlns:xlink="http://www.w3.org/1999/xlink" x="0px" y="0px"
	 viewBox="0 0 58 58" style="enable-background:new 0 0 58 58;" xml:space="preserve">
<style type="text/css">
	.st0{fill:#FFFFFF;}
</style>
<g>
	<path class="st0" d="M12.6,30.2c-1.2,0.6-1.1,1.5,0.1,2l3.6,1.4c1.2,0.5,3.1,0.2,4.1-0.6l15.6-12.3c1-0.8,1.1-0.7,0.2,0.3
		L23.9,34.2c-0.9,1-0.6,2.1,0.6,2.6l0.4,0.2c1.2,0.5,3.2,1.3,4.4,1.8l4,1.6c1.2,0.5,2.5-0.1,2.8-1.3l6.1-22.3
		c0.3-1.3-0.3-1.8-1.5-1.2L12.6,30.2z"/>
	<path class="st0" d="M22.4,44.8c-0.1,0.2,2.5-3.7,2.5-3.7c0.7-1.1,0.3-2.4-0.9-2.9l-2.8-1.1c-1.2-0.5-1.8,0.1-1.3,1.3
		C19.9,38.4,22.5,44.6,22.4,44.8z"/>
</g>
</svg>
